PathFileType	4	(X/Y/Z)	Patient4_TMGait_0pt8_01_right_09.trc.trc
DataRate	CameraRate	NumFrames	NumMarkers	Units	OrigDataRate	OrigDataStartFrame	OrigNumFrames
89.743589743590	89.743589743590	4	33	mm	89.743589743590	36	       141
Frame#	Time	Sacral			L.Shoulder			Chest			R.Shoulder			Neck			R.ASIS			L.ASIS			R.Thigh.Superior			R.Thigh.Lateral			R.Thigh.Inferior			R.Patella			L.Thigh.Superior			L.Thigh.Lateral			L.Thigh.Inferior			L.Patella			L.Shank.Superior			L.Shank.Lateral			L.Shank.Inferior			R.Shank.Superior			R.Shank.Lateral			R.Shank.Inferior			R.Heel			R.Midfoot.Superior			R.Midfoot.Lateral			R.Toe			L.Heel			L.Midfoot.Lateral			L.Midfoot.Superior			L.Toe			L.Elbow			L.Wrist			R.Elbow			R.Wrist			
		X1	Y1	Z1	X2	Y2	Z2	X3	Y3	Z3	X4	Y4	Z4	X5	Y5	Z5	X6	Y6	Z6	X7	Y7	Z7	X8	Y8	Z8	X9	Y9	Z9	X10	Y10	Z10	X11	Y11	Z11	X12	Y12	Z12	X13	Y13	Z13	X14	Y14	Z14	X15	Y15	Z15	X16	Y16	Z16	X17	Y17	Z17	X18	Y18	Z18	X19	Y19	Z19	X20	Y20	Z20	X21	Y21	Z21	X22	Y22	Z22	X23	Y23	Z23	X24	Y24	Z24	X25	Y25	Z25	X26	Y26	Z26	X27	Y27	Z27	X28	Y28	Z28	X29	Y29	Z29	X30	Y30	Z30	X31	Y31	Z31	X32	Y32	Z32	X33	Y33	Z33	

36	10.230000000000	880.350008489798	988.301902988251	495.597667884353	1064.399182216051	1420.290999347822	318.351127891218	1157.991969597392	1350.440054103097	485.390181145666	1063.536847142715	1423.386076588194	653.805786139700	1042.142252381055	1480.892631261381	474.015911828985	1107.669257238396	933.590178986139	621.802548369845	1096.783337230270	945.305122242092	344.893294939330	1180.153563800457	752.467245478230	596.416468275096	1115.478271070502	631.909414769088	655.267971515067	1206.240117437234	592.319083474995	581.728000507983	1222.444629950536	502.451131279868	590.586750216633	1124.132787120181	722.927895787804	364.040899467607	1025.416792147562	616.272509499564	295.389588573852	1106.417844412550	523.995615860955	348.318731599310	1091.624992463392	440.009490775219	343.300435754954	1019.550771184268	386.368923823778	336.373776628726	876.132176064581	351.758975090060	288.734608364138	856.144799043180	223.098337885979	342.030549327510	1198.951384806641	410.200112865641	594.805972584202	1131.276266382678	301.560103923309	651.609217802165	1183.307798697475	209.573751648106	592.305871268966	1060.256883331823	43.579155687201	554.256074720051	1229.240559393553	97.480528339964	599.987122562029	1139.041000402771	37.671256594106	634.482195588926	1347.563844129680	45.797516398079	635.175753232762	665.122457270216	163.841566281711	385.529924353102	716.939974629535	117.259063600136	302.893122028629	821.484415109405	123.967968679935	319.355670602819	896.260306893969	30.790420070719	288.130870793150	1109.331386360234	1085.744089852170	175.502344673683	1361.509268162223	1080.983168678450	209.647855737313	928.269256902926	1101.804951701382	752.679219725726	896.835143677404	843.882158482828	764.409833934844	
37	10.241142857143	880.502764179457	990.275950291786	499.437105294942	1063.609337175825	1421.634030063857	319.841351425348	1158.172556167666	1352.365533962908	486.579153907751	1064.663024301603	1425.697180139565	655.262442927223	1042.059919638082	1482.662422473593	475.317733614237	1108.177766606294	935.568593138291	624.776871143463	1096.615153113361	947.088154132735	348.166571308088	1178.463015247448	751.924790665453	600.717827163861	1111.073952681221	632.104029564217	657.695284039940	1201.693681495572	591.547779225517	584.403449173301	1216.436799693332	501.693024537079	592.457752011739	1129.298342168898	726.201212592372	367.039994571362	1034.884403369436	617.195884933313	297.327653616356	1118.577289475574	526.698643809631	350.367722084179	1104.991232774251	441.675022435820	344.758110040971	1031.265782669277	388.168331244787	337.615145052277	886.629460134313	358.676456086454	289.838800637447	862.558037389226	230.381644178365	342.483947261537	1192.257680823577	409.809247247646	596.495489163325	1123.798869537532	301.472400332297	652.722611767542	1175.234733274375	209.327978761053	593.087818733556	1051.466317918157	43.526066858628	554.490845583848	1220.466469904938	97.929821359379	600.617550604690	1130.225374982642	37.675636887635	634.714945152986	1338.684888396331	45.934204643664	635.511319577694	669.567750732901	181.296481978360	385.556663002461	718.604669486511	131.266848649305	302.945221391156	823.719826420803	130.552800693319	319.641263628954	890.986535291218	30.117308285376	288.457031454989	1102.785933456906	1084.161514795801	181.212506704689	1355.173050312248	1070.141354413457	213.181701016576	935.982673106013	1101.010495434701	755.888000094538	912.665489609375	842.222879992396	767.497285979218	
38	10.252285714286	880.487463746935	992.246799063453	503.173300181218	1062.476909134929	1422.869726675319	321.231243300666	1158.205050808943	1354.193052420374	487.551452299102	1065.843589654186	1427.875159146237	656.642200824104	1041.830608338726	1484.333571482636	476.564229549924	1108.529849456160	937.376776084874	627.488609387856	1096.389012902243	948.823258301087	351.177931050330	1176.331654385112	751.164534642707	604.783653364457	1106.311890090379	632.251671344446	660.013535820461	1196.668029324584	590.706342697505	586.889198157938	1209.906478887348	500.907767696212	594.244643225314	1134.252981991471	729.734089497399	369.955439167576	1044.166338666183	618.559760307911	299.214424440579	1130.396894650956	529.947216010548	352.520243587960	1118.198717530526	443.949145392756	346.477646524161	1043.094475090810	390.457595288801	339.071999333444	897.552775933485	365.568752805766	291.058384798264	869.796165859628	237.729788091815	343.185945615549	1185.176796779746	409.413600380375	598.103235748539	1116.053782260371	301.328180752858	653.781512030105	1167.013968044070	209.088705861224	593.849690320351	1042.654889014927	43.490456549149	554.690747832351	1211.696579956469	98.344395527431	601.226469473972	1121.390260093879	37.649970437483	634.911642999403	1329.811147216681	45.914276978571	635.810304473875	675.400781318487	197.829315663770	385.750154053497	721.898732665183	144.949280554253	303.143039349024	827.225347642872	137.540969363685	320.220251516318	887.521453012718	30.028313316410	288.860736422880	1096.132627475538	1082.661746744360	186.883300048878	1348.315021108301	1058.113782123329	216.531474337354	943.816051494141	1100.299001080772	759.220467691623	929.602272516069	840.792810715671	770.520438616277	
39	10.263428571429	880.316752045678	994.176987613902	506.760985022617	1061.037069866336	1423.971533933091	322.524357094078	1158.105564576090	1355.875964400310	488.312712021455	1067.097849823912	1429.891875033949	657.945013761254	1041.480596167413	1485.890712487789	477.763773350479	1108.721531329471	939.007569182412	629.943645040513	1096.107072876445	950.479575326403	353.893871002403	1173.822420751457	750.292721665336	608.467739491836	1101.378979503862	632.412873480994	662.226384017550	1191.292618081648	589.847555757248	589.143297640329	1202.997995209108	500.133850500028	595.941793073321	1138.919954489924	733.512202960775	372.795334060894	1053.137145838533	620.372896647313	301.044506699927	1141.756494258267	533.726296731629	354.719876087565	1131.123335978203	446.812852557066	348.344038329170	1054.908848899992	393.218226617893	340.662710522784	908.726744457477	372.289201616643	292.372056672045	877.810928642170	244.923665268504	344.086703051504	1177.840079079536	409.034918356678	599.614609427696	1108.156193938517	301.167831423387	654.806463996732	1158.702395152950	208.868562737004	594.587114218513	1033.809785857007	43.487139111206	554.870162723739	1202.917419658213	98.684534773227	601.797168762979	1112.527310892955	37.609547511916	635.083464403322	1320.938086880176	45.739055126026	636.072893489911	682.492325349653	212.812240817238	386.107047061865	726.838053466143	157.719323521868	303.494535078141	832.102305729409	144.664762031505	321.034463498171	886.326840464471	30.677512967346	289.357227142929	1089.441086331105	1081.212928490588	192.471489260847	1340.850664569773	1044.964028808618	219.676915143942	951.797065020096	1099.645499396175	762.659854470763	947.563982370050	839.671357623834	773.451891725750	
